<svg width="64" height="64" viewBox="0 0 64 64" fill="none" xmlns="http://www.w3.org/2000/svg">
<path d="M26.5 26.7639C32.0228 26.7639 36.5 22.2868 36.5 16.7639C36.5 11.2411 32.0228 6.76392 26.5 6.76392C20.9772 6.76392 16.5 11.2411 16.5 16.7639C16.5 22.2868 20.9772 26.7639 26.5 26.7639Z" fill="#43B682"/>
<path d="M26.5 6.76587C23.8478 6.76587 21.3043 7.81946 19.4289 9.69482C17.5536 11.5702 16.5 14.1137 16.5 16.7659C16.5 19.418 17.5536 21.9615 19.4289 23.8369C21.3043 25.7123 23.8478 26.7659 26.5 26.7659C27.1627 26.7607 27.8233 26.6898 28.472 26.554C26.2205 26.0877 24.1984 24.8597 22.7463 23.0769C21.2943 21.2941 20.501 19.0652 20.5 16.7659C20.5019 14.4588 21.3014 12.2232 22.763 10.4382C24.2247 8.65325 26.2586 7.42873 28.52 6.97192C27.8554 6.8349 27.1786 6.76582 26.5 6.76587Z" fill="#348F66"/>
<path d="M26.5 6.76587C23.8478 6.76587 21.3043 7.81946 19.4289 9.69483C17.5536 11.5702 16.5 14.1137 16.5 16.7659C16.5 19.418 17.5536 21.9615 19.4289 23.8369C21.3043 25.7123 23.8478 26.7659 26.5 26.7659C26.8188 26.7611 27.1371 26.741 27.454 26.7058C24.9974 26.4474 22.7233 25.2889 21.07 23.4536C19.4168 21.6183 18.5013 19.236 18.5 16.7659C18.502 14.2809 19.4291 11.8858 21.1007 10.0471C22.7722 8.20844 25.0685 7.05788 27.542 6.81983C27.1958 6.7837 26.848 6.76573 26.5 6.76587Z" fill="white"/>
<path d="M22.608 7.54983C23.8392 7.02832 25.163 6.76108 26.5 6.76394C28.6483 6.76447 30.7393 7.45669 32.4634 8.7383C34.1875 10.0199 35.453 11.8227 36.0726 13.8797C36.6922 15.9366 36.6329 18.1386 35.9035 20.1592C35.1741 22.1799 33.8134 23.9119 32.0228 25.0989C30.2323 26.2859 28.107 26.8646 25.9619 26.7495C23.8167 26.6345 21.7656 25.8317 20.1123 24.46C18.459 23.0883 17.2914 21.2204 16.7823 19.1333C16.2733 17.0462 16.4499 14.8507 17.286 12.8718M18.784 10.4038C18.988 10.1558 19.204 9.91987 19.428 9.69387" stroke="black" stroke-linecap="round"/>
<path d="M26.5 4.25195V0.251953M39.5 17.252H43.5M9.5 17.252H13.5M35.692 8.05786L38.52 5.22998M14.48 29.272L17.308 26.4438M35.692 26.4438L38.52 29.272M14.48 5.23193L17.308 8.05786" stroke="black"/>
<path d="M27 18.752C24.784 18.752 23 20.536 23 22.752V38.752H18.5C16.56 38.752 15 40.536 15 42.752V43.1199C15 43.1399 15.012 43.148 15.012 43.158C15.0814 46.5985 16.0373 49.9628 17.7873 52.9258C19.5374 55.8888 22.0224 58.3501 25.002 60.0718C28.0424 61.8271 31.4913 62.7515 35.002 62.7515C38.5127 62.7515 41.9616 61.8271 45.002 60.0718C48.0367 58.3197 50.5579 55.8011 52.3129 52.7681C54.0679 49.735 54.9952 46.294 55.002 42.7898V38.75C55.002 36.534 53.442 34.75 51.502 34.75H31.002V22.75C31.002 20.534 29.218 18.75 27.002 18.75L27 18.752Z" fill="#FAA660"/>
<path d="M27 18.75C24.784 18.75 23 20.534 23 22.75V38.75H26.492V22.75C26.492 21.162 27.416 19.8098 28.75 19.1638C28.2058 18.8944 27.6072 18.753 27 18.75ZM18.5 38.75C16.56 38.75 15 40.534 15 42.75V43.1179C15 43.1379 15.012 43.1458 15.012 43.1558C15.0812 46.5961 16.0368 49.9606 17.7865 52.9236C19.5362 55.8866 22.0208 58.3479 25 60.0698C28.5751 62.1291 32.6995 63.0323 36.808 62.6558C33.8797 62.4151 31.0404 61.5322 28.492 60.0698C25.5128 58.3479 23.0282 55.8866 21.2785 52.9236C19.5288 49.9606 18.5731 46.5961 18.504 43.1558C18.504 43.1558 18.492 43.1359 18.492 43.1179V42.75C18.492 40.534 20.052 38.75 21.992 38.75H18.5Z" fill="white"/>
<path d="M27 18.75C26.368 18.75 25.78 18.9119 25.25 19.1719C25.922 19.4981 26.4887 20.0068 26.8851 20.6399C27.2816 21.273 27.4919 22.005 27.492 22.752V34.752H31V22.752C31 20.534 29.216 18.75 27 18.75ZM47.992 34.75C49.932 34.75 51.492 36.534 51.492 38.75V42.7898C51.4849 46.2937 50.5574 49.7342 48.8024 52.7668C47.0474 55.7995 44.5264 58.3179 41.492 60.0698C38.9833 61.5139 36.191 62.3962 33.308 62.6558C37.378 63.0081 41.4582 62.1057 45 60.0698C48.0344 58.3179 50.5554 55.7995 52.3104 52.7668C54.0654 49.7342 54.9929 46.2937 55 42.7898V38.75C55 36.534 53.44 34.75 51.5 34.75H47.992Z" fill="#FD5B6A"/>
<path d="M54.302 47.9978C54.7636 46.3002 54.999 44.549 55.002 42.7898V38.75C55.002 36.534 53.442 34.75 51.502 34.75H31.002V22.75C31.002 20.534 29.218 18.75 27.002 18.75C24.784 18.75 23.002 20.536 23.002 22.75V38.75H18.502C16.562 38.75 15.002 40.536 15.002 42.75V43.1199C15.002 43.1399 15.012 43.148 15.012 43.158C15.0813 46.5985 16.0372 49.9628 17.7873 52.9258C19.5374 55.8888 22.0223 58.3501 25.002 60.0718C29.0127 62.3872 33.7027 63.2391 38.2714 62.4819C42.8402 61.7247 47.0046 59.4054 50.054 55.9199M52.312 52.7678C52.528 52.3938 52.732 52.0139 52.922 51.6279" stroke="black" stroke-linecap="round" stroke-linejoin="round"/>
</svg>
