<svg width="16" height="16" viewBox="0 0 16 16" fill="none" xmlns="http://www.w3.org/2000/svg">
<path d="M1 2H2.27273V5.99998H6.72726V2.57142H12.4546C13.8545 2.57142 15 3.6 15 4.85714V14H13.7272V12.8571H2.27273V14H1V2ZM7.99998 3.71428V5.99998H13.7272V4.85714C13.7272 4.22856 13.1545 3.71428 12.4546 3.71428H7.99998ZM2.27273 7.14284V11.7143H6.72726V8.2857H12.4546C12.9 8.2857 13.3455 8.4 13.7272 8.62858V7.14284H2.27273ZM4.49999 8.2857C5.3909 8.2857 6.0909 8.91423 6.0909 9.71427C6.0909 10.5143 5.3909 11.1428 4.49999 11.1428C3.60909 11.1428 2.90908 10.5143 2.90908 9.71427C2.90908 8.91423 3.60909 8.2857 4.49999 8.2857ZM4.49999 9.19996C4.18181 9.19996 3.92726 9.42854 3.92726 9.71427C3.92726 9.99999 4.18181 10.2286 4.49999 10.2286C4.81817 10.2286 5.07272 9.99999 5.07272 9.71427C5.07272 9.42854 4.81817 9.19996 4.49999 9.19996ZM7.99998 9.42854V11.7143H13.7272V10.5714C13.7272 9.94285 13.1545 9.42854 12.4546 9.42854H7.99998ZM4.49999 2.57142C5.3909 2.57142 6.0909 3.19999 6.0909 3.99999C6.0909 4.79999 5.3909 5.42856 4.49999 5.42856C3.60909 5.42856 2.90908 4.79999 2.90908 3.99999C2.90908 3.19999 3.60909 2.57142 4.49999 2.57142ZM4.49999 3.48571C4.18181 3.48571 3.92726 3.71428 3.92726 3.99999C3.92726 4.28571 4.18181 4.51428 4.49999 4.51428C4.81817 4.51428 5.07272 4.28571 5.07272 3.99999C5.07272 3.71428 4.81817 3.48571 4.49999 3.48571Z" fill="#343838"/>
</svg>
