<svg width="64" height="64" viewBox="0 0 64 64" fill="none" xmlns="http://www.w3.org/2000/svg">
<path d="M16.6636 3.68677H59.1336C60.4408 3.68677 61.4931 4.73908 61.4931 6.04621V60.3135C61.4931 61.6206 60.4408 62.6729 59.1336 62.6729H16.6636C15.3565 62.6729 14.3041 61.6206 14.3041 60.3135V6.04621C14.3041 4.73908 15.3565 3.68677 16.6636 3.68677Z" fill="#7D9EC7" stroke="#105286" stroke-linecap="round" stroke-linejoin="round"/>
<path d="M20.2736 55.0162H49.0211L57.3641 46.6804V7.05599C57.3641 5.51527 56.123 4.27661 54.5823 4.27661H21.2173C19.6766 4.27661 18.4355 5.51527 18.4355 7.05599V52.0836C18.4355 53.622 18.7588 54.7661 20.2759 55.0162H20.2736Z" fill="#FBFDFE"/>
<path d="M18.4332 47.0062V52.2158C18.4332 53.7542 19.6742 54.9929 21.215 54.9929H49.021L57.364 46.6591V7.05599C57.364 5.51527 56.123 4.27661 54.5823 4.27661H21.2173C19.6766 4.27661 18.4355 5.51527 18.4355 7.05599V42.2446" stroke="#105286" stroke-linecap="round" stroke-linejoin="round"/>
<path d="M49.0211 54.993L57.3641 46.6592H51.8028C49.0211 46.6592 49.0211 49.4057 49.0211 49.4057V54.993Z" fill="#105286" stroke="#105286" stroke-linecap="round" stroke-linejoin="round"/>
<path d="M46.1567 1.32715H29.6405C28.989 1.32715 28.4608 1.85547 28.4608 2.50702V7.24924C28.4608 7.90078 28.989 8.42896 29.6405 8.42896H46.1567C46.8082 8.42896 47.3364 7.90078 47.3364 7.24924V2.50702C47.3364 1.85547 46.8082 1.32715 46.1567 1.32715Z" fill="#2DBCA4" stroke="#105286" stroke-linecap="round" stroke-linejoin="round"/>
<path d="M54.4148 11.9448H35.3481V14.3043H54.4148V11.9448Z" fill="#8FB6D7"/>
<path d="M54.4148 19.0232H35.3481V16.6637H54.4148V19.0232Z" fill="#8FB6D7"/>
<path d="M54.4148 21.3826H35.3481V23.742H54.4148V21.3826Z" fill="#8FB6D7"/>
<path d="M54.4148 28.4609H21.3825V26.1015H54.4148V28.4609Z" fill="#8FB6D7"/>
<path d="M54.4148 30.8203H21.3825V33.1798H54.4148V30.8203Z" fill="#8FB6D7"/>
<path d="M54.4148 37.8987H21.3825V35.5392H54.4148V37.8987Z" fill="#8FB6D7"/>
<path d="M37.8986 42.6177H21.3825V40.2582H37.8986V42.6177Z" fill="#8FB6D7"/>
<path d="M10.4891 49.8088L5.77018 41.6355L36.4204 23.9396L41.1393 32.113L10.4891 49.8088Z" fill="#EE7581" stroke="#105286" stroke-linecap="round" stroke-linejoin="round"/>
<path d="M41.1381 32.1132L36.4193 23.9401L46.9518 23.3076L41.1381 32.1132ZM10.4889 49.8091L7.42165 51.5786C5.72521 52.5578 3.56867 51.9796 2.5895 50.2808L1.40978 48.2399C1.17609 47.8376 1.02421 47.393 0.962852 46.9318C0.901495 46.4705 0.931871 46.0019 1.05224 45.5524C1.1726 45.103 1.38059 44.6816 1.66424 44.3128C1.94789 43.944 2.30162 43.6347 2.70511 43.403L5.77003 41.6334L10.4889 49.8091Z" fill="#E9EDED" stroke="#105286" stroke-linecap="round" stroke-linejoin="round"/>
<path d="M38.7787 28.0266L10.1728 44.5427" stroke="#105286"/>
<path d="M45.4984 25.5066L46.9518 23.3076L44.3187 23.4657L45.4984 25.5066Z" fill="#105286"/>
<path d="M10.4891 49.8088L5.77018 41.6355L7.81352 40.4558L12.5324 48.6291L10.4891 49.8088Z" fill="#105286" stroke="#105286" stroke-linecap="round" stroke-linejoin="round"/>
<path d="M21.1914 11.9448H32.9886V23.7421H21.1914V11.9448Z" fill="#105286"/>
<path fill-rule="evenodd" clip-rule="evenodd" d="M24.7329 21.3827L26.5025 17.8435L28.2721 21.3827" fill="#8FB6D7"/>
<path fill-rule="evenodd" clip-rule="evenodd" d="M26.5025 21.3825L29.1545 16.0737L31.8089 21.3825" fill="#406B95"/>
<path d="M24.7306 16.6636C25.3821 16.6636 25.9103 16.1355 25.9103 15.4839C25.9103 14.8324 25.3821 14.3042 24.7306 14.3042C24.079 14.3042 23.5508 14.8324 23.5508 15.4839C23.5508 16.1355 24.079 16.6636 24.7306 16.6636Z" fill="#F8B84E"/>
</svg>
