<svg width="32" height="32" viewBox="0 0 32 32" fill="none" xmlns="http://www.w3.org/2000/svg">
<path d="M1.52874 18.4767C1.42769 18.4579 1.24632 18.3882 1.11417 18.3212C0.627045 18.0693 0.259109 17.6351 0.0725506 17.0856C0.00777328 16.8926 0 16.8363 0 16.5093C0 16.1957 0.00777328 16.126 0.0621862 15.9732C0.194332 15.6006 0.160648 15.6301 2.40713 13.7672C3.5498 12.821 5.10704 11.5291 5.87142 10.8938C8.59206 8.63959 11.5563 6.17897 13.3571 4.68598C14.6138 3.64598 15.2253 3.15278 15.3185 3.11258C15.5129 3.0268 15.6813 3 16.0052 3C16.3498 3 16.596 3.05361 16.7825 3.17155C16.8602 3.21979 17.5132 3.74784 18.2309 4.34289C18.9487 4.94062 20.423 6.16289 21.5061 7.06082C22.5891 7.95876 24.1568 9.26144 24.9911 9.95299C26.5898 11.2798 27.8594 12.3305 30.2355 14.3033C31.5025 15.3513 31.6994 15.5256 31.7927 15.6703C31.9611 15.9276 32 16.0858 32 16.4959C32 16.8068 31.9922 16.8685 31.9249 17.0802C31.8057 17.4581 31.5854 17.7959 31.2874 18.0532C30.9791 18.3239 30.4972 18.5196 30.1526 18.5196C29.9764 18.5196 29.7069 18.4526 29.5618 18.3775C29.4918 18.34 28.8803 17.8495 28.204 17.2866C26.8334 16.1474 26.7038 16.0429 26.6908 16.0563C26.6857 16.0616 26.7038 16.2654 26.7297 16.5093C26.7582 16.7532 26.7764 16.9649 26.7712 16.981C26.7686 16.9998 26.3955 16.839 25.898 16.6058C25.0066 16.1849 23.8588 15.6489 20.8972 14.2577C19.9644 13.8208 18.5289 13.1454 17.7075 12.7594C16.8862 12.3761 16.1917 12.0598 16.1606 12.0598C16.1296 12.0598 15.9611 12.1241 15.7875 12.2045C15.6113 12.2849 14.8677 12.62 14.1344 12.9524C11.2453 14.2577 8.06866 15.6918 7.79919 15.8124C6.64097 16.3404 5.49312 16.8524 5.48794 16.847C5.48275 16.8416 5.50348 16.6192 5.53198 16.3511C5.56308 16.0831 5.58381 15.8499 5.57862 15.8365C5.57344 15.8231 5.43611 15.9249 5.27287 16.0616C3.54462 17.5037 2.54445 18.3212 2.43822 18.3748C2.18688 18.5115 1.86559 18.5464 1.52874 18.4767Z" fill="url(#paint0_linear_90_862)"/>
<path d="M6.57073 28.941C6.55778 28.9062 6.50077 28.7588 6.44377 28.6113C5.51356 26.199 5.13527 22.8538 5.33996 18.801C5.38142 17.9835 5.43583 17.2437 5.45656 17.2196C5.46433 17.2115 5.67939 17.2732 5.93591 17.3563C6.18984 17.4367 6.55259 17.5519 6.73656 17.6109C6.92312 17.6699 7.17186 17.7503 7.28846 17.7905L7.50612 17.8629L7.48798 17.9701C7.47761 18.0291 7.45688 18.214 7.43875 18.3775L7.40765 18.6804L7.2496 18.8332C7.08377 18.994 7.03454 19.1039 7.03454 19.2969C7.03454 19.4229 7.12004 19.6078 7.22369 19.7097C7.34288 19.8249 7.35065 19.8625 7.30401 20.0957C7.20296 20.613 6.95162 21.1383 6.53705 21.7066C6.39713 21.8996 6.38676 21.9666 6.47227 22.0631C6.56296 22.1649 6.84798 22.3177 7.03972 22.3713C7.19778 22.4142 7.21591 22.4142 7.32474 22.3713C7.38692 22.3445 7.50352 22.2668 7.58126 22.1944C7.9466 21.8567 8.0632 21.2965 7.99324 20.2243L7.96215 19.7445L8.03988 19.6346C8.21867 19.3773 8.20312 19.0878 7.99583 18.86C7.93365 18.7903 7.92846 18.7662 7.93365 18.5919C7.94401 18.2971 7.99065 18.0371 8.03729 18.0371C8.05802 18.0371 8.12798 18.0559 8.19535 18.0773C8.26271 18.0988 8.50369 18.1765 8.7317 18.2489C8.95972 18.3212 9.32247 18.4392 9.53494 18.5062C9.75 18.5732 10.0195 18.659 10.1387 18.6965C10.2786 18.7421 10.3615 18.7849 10.3796 18.8198C10.3978 18.8546 10.4055 19.12 10.4055 19.5596C10.403 19.9375 10.4107 20.235 10.4237 20.2216C10.4341 20.2056 10.4962 20.1225 10.561 20.034C11.144 19.2218 12.1882 18.4472 13.3438 17.9728C14.3233 17.5707 15.1887 17.4233 16.3754 17.4555C17.2383 17.4796 17.7902 17.5734 18.4872 17.8146C19.7827 18.2596 20.9953 19.0905 21.6638 19.9911L21.7908 20.1627L21.8038 19.5408C21.8167 18.9645 21.8193 18.9136 21.866 18.8788C21.923 18.8359 21.9566 18.8251 23.3714 18.399C23.9414 18.2247 24.939 17.9218 25.5868 17.7262C26.2345 17.5278 26.7761 17.367 26.7916 17.367C26.8253 17.367 26.8901 18.281 26.9367 19.3773C26.9704 20.1439 26.9523 22.2641 26.9082 22.8886C26.7346 25.3734 26.3641 27.2175 25.7137 28.8445L25.6515 29H16.1215H6.59405L6.57073 28.941ZM11.6804 22.7037C12.2478 22.3981 12.779 22.1113 13.1754 21.8996L13.577 21.6851L13.5848 21.5109C13.59 21.4144 13.5848 21.334 13.577 21.334C13.5641 21.334 12.608 21.846 11.5301 22.433C11.4031 22.5027 11.258 22.5804 11.2088 22.6045L11.1233 22.6528L11.2217 22.7573C11.2762 22.8136 11.3358 22.8618 11.3565 22.8618C11.3746 22.8618 11.5223 22.7922 11.6804 22.7037ZM21.0264 22.7627C21.086 22.7091 21.1223 22.6581 21.1119 22.6474C21.1016 22.6367 20.9332 22.5429 20.7414 22.441C20.5497 22.3365 20.0107 22.0443 19.5443 21.7924C19.0805 21.5404 18.6919 21.334 18.6815 21.334C18.6737 21.334 18.6685 21.4144 18.6737 21.5109L18.6815 21.6878L18.9924 21.854C19.4096 22.0765 20.2206 22.5134 20.573 22.7037C20.7311 22.7895 20.8736 22.8592 20.8891 22.8618C20.9072 22.8618 20.9694 22.819 21.0264 22.7627ZM11.3565 22.4437C11.5094 22.3606 11.727 22.24 11.841 22.1783C11.955 22.1167 12.3463 21.9049 12.709 21.7093C13.0718 21.5136 13.419 21.3233 13.4812 21.2884L13.59 21.2241V20.8703V20.5138L13.8051 20.4441C14.7094 20.1412 15.8624 20.0313 16.974 20.1412C17.5414 20.1975 17.9223 20.2726 18.4017 20.428L18.666 20.5111L18.6737 20.8757L18.6815 21.2402L19.2645 21.5565C19.5858 21.7307 20.1455 22.0336 20.5108 22.2319C20.8762 22.4303 21.1871 22.5938 21.2 22.5938C21.213 22.5938 21.3218 22.4973 21.4436 22.3821C21.9981 21.8513 22.0421 21.2992 21.5965 20.5299C21.3659 20.1332 21.0705 19.7928 20.6507 19.4336C20.3579 19.1843 20.3294 19.1629 19.9511 18.9163C19.1194 18.3748 18.1503 18.0049 17.1864 17.8629C16.8237 17.8093 15.4478 17.8093 15.0669 17.8602C14.5306 17.9352 13.8724 18.1229 13.349 18.348C13.1081 18.4526 12.6132 18.7152 12.424 18.8385C12.3307 18.8975 12.2219 18.9672 12.1779 18.9913C11.9965 19.0959 11.4886 19.514 11.258 19.7526C10.5662 20.4629 10.2423 21.1973 10.39 21.7254C10.4366 21.8942 10.5455 22.1086 10.6413 22.2212C10.7243 22.3204 11.0326 22.5938 11.0585 22.5938C11.0715 22.5938 11.2062 22.5268 11.3565 22.4437Z" fill="url(#paint1_linear_90_862)"/>
<defs>
<linearGradient id="paint0_linear_90_862" x1="0" y1="3" x2="12.1871" y2="28.1286" gradientUnits="userSpaceOnUse">
<stop/>
<stop offset="1" stopColor="#7D7E83"/>
</linearGradient>
<linearGradient id="paint1_linear_90_862" x1="5.28589" y1="17.2189" x2="15.1738" y2="35.405" gradientUnits="userSpaceOnUse">
<stop stopColor="#7D7E83"/>
<stop offset="1"/>
</linearGradient>
</defs>
</svg>
